HIERARCHY
ROOT Hips
{
	OFFSET -0.001795 -0.223333 0.028219
	CHANNELS 6 Xposition Yposition Zposition Zrotation Yrotation Xrotation 
	JOINT LeftUpLeg
	{
		OFFSET 0.069520 -0.091406 -0.006815
		CHANNELS 3 Zrotation Yrotation Xrotation
		JOINT LeftLeg
		{
			OFFSET 0.034277 -0.375199 -0.004496
			CHANNELS 3 Zrotation Yrotation Xrotation
			JOINT LeftFoot
			{
				OFFSET -0.013596 -0.397961 -0.043693
				CHANNELS 3 Zrotation Yrotation Xrotation
				JOINT LeftToe
				{
					OFFSET 0.026358 -0.055791 0.119288
					CHANNELS 3 Zrotation Yrotation Xrotation
					End Site
					{
						OFFSET 0.000000 0.000000 0.000000
					}
				}
			}
		}
	}
	JOINT RightUpLeg
	{
		OFFSET -0.067670 -0.090522 -0.004320
		CHANNELS 3 Zrotation Yrotation Xrotation
		JOINT RightLeg
		{
			OFFSET -0.038290 -0.382569 -0.008850
			CHANNELS 3 Zrotation Yrotation Xrotation
			JOINT RightFoot
			{
				OFFSET 0.015774 -0.398415 -0.042312
				CHANNELS 3 Zrotation Yrotation Xrotation
				JOINT RightToe
				{
					OFFSET -0.025372 -0.048144 0.123348
					CHANNELS 3 Zrotation Yrotation Xrotation
					End Site
					{
						OFFSET 0.000000 0.000000 0.000000
					}
				}
			}
		}
	}
	JOINT Spine
	{
		OFFSET -0.002533 0.108963 -0.026696
		CHANNELS 3 Zrotation Yrotation Xrotation
		JOINT Spine1
		{
			OFFSET 0.005487 0.135180 0.001092
			CHANNELS 3 Zrotation Yrotation Xrotation
			JOINT Spine2
			{
				OFFSET 0.001457 0.052922 0.025425
				CHANNELS 3 Zrotation Yrotation Xrotation
				JOINT Neck
				{
					OFFSET -0.002778 0.213870 -0.042857
					CHANNELS 3 Zrotation Yrotation Xrotation
					JOINT Head
					{
						OFFSET 0.005152 0.064970 0.051349
						CHANNELS 3 Zrotation Yrotation Xrotation
						End Site
						{
							OFFSET 0.000000 0.000000 0.000000
						}
					}
				}
				JOINT LeftShoulder
				{
					OFFSET 0.078845 0.121749 -0.034090
					CHANNELS 3 Zrotation Yrotation Xrotation
					JOINT LeftArm
					{
						OFFSET 0.090977 0.030469 -0.008868
						CHANNELS 3 Zrotation Yrotation Xrotation
						JOINT LeftForeArm
						{
							OFFSET 0.259612 -0.012772 -0.027456
							CHANNELS 3 Zrotation Yrotation Xrotation
							JOINT LeftHand
							{
								OFFSET 0.249234 0.008986 -0.001171
								CHANNELS 3 Zrotation Yrotation Xrotation
								End Site
								{
									OFFSET 0.000000 0.000000 0.000000
								}
							}
						}
					}
				}
				JOINT RightShoulder
				{
					OFFSET -0.081759 0.118833 -0.038615
					CHANNELS 3 Zrotation Yrotation Xrotation
					JOINT RightArm
					{
						OFFSET -0.096012 0.032551 -0.009143
						CHANNELS 3 Zrotation Yrotation Xrotation
						JOINT RightForeArm
						{
							OFFSET -0.253742 -0.013329 -0.021401
							CHANNELS 3 Zrotation Yrotation Xrotation
							JOINT RightHand
							{
								OFFSET -0.255298 0.007772 -0.005559
								CHANNELS 3 Zrotation Yrotation Xrotation
								End Site
								{
									OFFSET 0.000000 0.000000 0.000000
								}
							}
						}
					}
				}
			}
		}
	}
}
MOTION
Frames: 18
Frame Time: 0.050000
0.000000 0.950254 0.000000 0.204415 -1.902245 6.158567 1.710584 -0.005372 0.481892 -1.718546 0.280105 -4.661394 4.445807 11.184920 9.349997 0.000000 0.000000 0.000000 -2.250356 0.388263 -3.683976 1.845937 -0.200483 -0.748695 -6.827736 -17.567795 8.698525 0.000000 0.000000 0.000000 1.977711 0.395881 -7.522052 -0.995281 0.526328 -4.907107 -0.453778 0.412355 10.009083 2.716378 -0.460530 -18.023695 0.000000 0.000000 0.000000 -7.534216 -1.040053 -0.108582 -17.085051 -7.876312 -1.425396 23.648040 -7.081819 -1.046912 0.000000 0.000000 0.000000 2.814934 2.781684 0.794068 17.819942 9.642406 -0.873815 -14.407026 6.919426 -0.361305 0.000000 0.000000 0.000000 
-0.000009 0.948186 -0.000082 0.080642 -2.098263 6.597289 1.469039 -0.036897 0.018405 -1.542386 0.278640 -5.131312 4.495206 11.174984 8.860649 0.000000 0.000000 0.000000 -2.004706 0.384776 -3.645343 1.914337 -0.217046 -1.257215 -7.206035 -18.289048 8.603510 0.000000 0.000000 0.000000 1.532400 0.423269 -8.275137 -0.870311 0.453348 -3.467388 0.191733 0.865169 8.884226 1.845441 0.326039 -20.714359 0.000000 0.000000 0.000000 -11.250678 -0.226401 -0.795094 -24.046304 -7.852950 -1.756052 23.631139 -11.128959 -1.730769 0.000000 0.000000 0.000000 7.244380 2.164240 0.277807 23.513391 8.973599 -1.033172 -15.504818 10.049646 -0.718576 0.000000 0.000000 0.000000 
-0.000271 0.947081 0.000088 0.058685 -3.618969 6.795919 1.317211 -0.031632 0.017013 -1.340683 0.240633 -3.920689 4.874852 11.586725 7.874102 0.000000 0.000000 0.000000 -2.221215 0.437730 -4.211697 2.965589 -0.293323 -0.955640 -7.088225 -18.041565 7.530237 0.000000 0.000000 0.000000 2.671634 0.528929 -8.865355 -1.934312 0.901245 -3.925583 -0.312734 1.521163 10.154305 3.321198 -0.646910 -19.608551 0.000000 0.000000 0.000000 -14.696243 -0.386623 -0.954781 -30.245748 -6.241631 -2.511134 22.371558 -13.244286 -1.915263 0.000000 0.000000 0.000000 12.188684 2.854876 0.252240 29.926520 7.590014 -1.517079 -16.051910 13.275242 -1.102161 0.000000 0.000000 0.000000 
-0.001103 0.945735 0.000393 0.231444 -3.941429 6.872331 1.264185 -0.016244 0.183253 -1.792944 0.276714 -3.833485 5.016349 11.699201 6.987869 0.000000 0.000000 0.000000 -2.142479 0.476869 -4.692339 3.647904 -0.338428 0.216536 -7.443216 -18.692364 6.897339 0.000000 0.000000 0.000000 2.064549 0.555131 -9.619905 -1.928494 0.899187 -3.178820 0.331365 0.135049 10.263216 2.420023 -0.325725 -19.660074 0.000000 0.000000 0.000000 -19.601945 0.316741 -1.323234 -37.747593 -4.032950 -3.806870 22.536341 -16.487183 -2.298771 0.000000 0.000000 0.000000 15.627851 4.784056 0.626771 36.154904 6.968280 -1.787180 -14.984534 14.657440 -1.191590 0.000000 0.000000 0.000000 
-0.002479 0.944976 0.000521 0.438395 -3.661949 6.905435 0.733344 -0.000572 0.223182 -1.624378 0.251112 -3.318689 4.737724 11.234672 7.115348 0.000000 0.000000 0.000000 -2.184609 0.473304 -4.652184 3.662951 -0.339509 0.547441 -7.536897 -18.836932 6.428175 0.000000 0.000000 0.000000 1.853181 0.535212 -9.544808 -1.203321 0.582489 -3.016666 -0.401059 0.118383 9.533161 2.363991 -0.310634 -18.898307 0.000000 0.000000 0.000000 -22.909363 -0.313022 -1.309015 -44.800132 -1.930166 -5.114237 20.298160 -19.662171 -2.427845 0.000000 0.000000 0.000000 19.090827 4.438170 0.236983 43.872056 5.418717 -2.570944 -13.301206 17.321347 -1.215524 0.000000 0.000000 0.000000 
-0.004700 0.944049 0.000245 0.553247 -3.332170 6.889285 0.463391 -0.016770 -0.031515 -0.874409 0.180507 -3.109986 4.327192 10.387885 6.347556 0.000000 0.000000 0.000000 -2.434920 0.463414 -4.514163 4.057717 -0.379089 1.033199 -7.197825 -18.072749 5.364876 0.000000 0.000000 0.000000 1.654098 0.544309 -9.914953 -1.254427 0.601918 -1.593346 0.183655 -1.158249 8.854085 2.177968 -0.248056 -19.894644 0.000000 0.000000 0.000000 -25.614804 -0.167317 -1.226780 -51.354475 -2.537356 -5.651914 17.797792 -20.362169 -1.997884 0.000000 0.000000 0.000000 20.706743 5.690725 0.444718 50.230310 5.216590 -2.846446 -9.823712 17.025744 -0.774688 0.000000 0.000000 0.000000 
-0.007754 0.943471 -0.000939 0.667167 -2.843607 6.346242 0.320261 0.024285 0.375640 -0.749653 0.161381 -2.826556 3.992552 9.761975 6.122862 0.000000 0.000000 0.000000 -2.315687 0.451288 -4.432584 4.152995 -0.390719 1.994400 -7.151558 -17.940282 4.935312 0.000000 0.000000 0.000000 1.594396 0.490101 -9.161369 -0.899878 0.440594 -1.349469 -0.230174 -1.661071 8.845339 2.074006 -0.200862 -20.016429 0.000000 0.000000 0.000000 -27.059139 -1.466264 -0.431826 -56.311770 -2.558531 -6.174438 14.870792 -21.489991 -1.585258 0.000000 0.000000 0.000000 21.976210 7.097166 1.091813 55.234935 4.720746 -3.343961 -6.837835 16.658841 -0.370107 0.000000 0.000000 0.000000 
-0.011712 0.943802 -0.002696 0.446527 -3.330565 5.919135 0.601135 0.007971 0.261168 -0.150832 0.070032 -1.651061 4.186206 9.895779 5.030075 0.000000 0.000000 0.000000 -1.881319 0.461447 -4.599122 4.708714 -0.446698 3.199319 -6.883464 -17.284033 3.940520 0.000000 0.000000 0.000000 2.081556 0.470473 -8.348432 -0.969406 0.470614 -1.279184 0.040491 -1.429430 9.656706 2.416465 -0.379767 -20.560196 0.000000 0.000000 0.000000 -27.906934 -2.380497 0.209014 -58.606426 -3.907609 -5.865710 11.076507 -22.167239 -0.928221 0.000000 0.000000 0.000000 22.362389 7.802921 1.468743 57.922277 5.538342 -3.202475 -3.860286 16.915964 0.012454 0.000000 0.000000 0.000000 
-0.016356 0.944638 -0.004468 0.461216 -3.161677 5.655564 1.034273 -0.039044 -0.186889 -0.467358 0.074629 -0.735906 4.021346 9.553662 4.829613 0.000000 0.000000 0.000000 -1.523982 0.497800 -5.047410 4.739538 -0.450847 4.994100 -6.752442 -16.927183 3.182291 0.000000 0.000000 0.000000 1.943530 0.406225 -7.456378 -0.589527 0.292278 -0.847178 -0.046287 -1.757089 9.525965 2.141119 -0.192122 -21.280303 0.000000 0.000000 0.000000 -27.718375 -3.276837 0.875655 -59.176929 -4.904717 -5.424117 9.331891 -23.594253 -0.644393 0.000000 0.000000 0.000000 22.278556 9.077859 2.136177 58.722811 6.029104 -2.980299 -3.153262 16.625737 0.098339 0.000000 0.000000 0.000000 
-0.021585 0.945128 -0.005014 0.540299 -3.316880 5.412508 1.156266 -0.083025 -0.701601 -0.590387 0.049384 0.678532 4.242481 9.852587 4.227109 0.000000 0.000000 0.000000 -1.441137 0.514082 -5.239166 5.198405 -0.512832 5.530973 -6.509364 -16.341492 2.727793 0.000000 0.000000 0.000000 2.146492 0.386119 -6.990125 -0.686604 0.336045 -0.731813 0.040085 -1.723438 9.987787 1.994701 -0.134381 -21.184606 0.000000 0.000000 0.000000 -27.355097 -3.996690 1.402067 -58.951808 -5.806619 -5.009636 6.995372 -24.871003 -0.188610 0.000000 0.000000 0.000000 21.965632 9.859079 2.590144 58.861462 6.730268 -2.685985 -1.950385 17.180434 0.257638 0.000000 0.000000 0.000000 
-0.027588 0.944845 -0.004525 0.663846 -3.923086 4.938579 1.464696 -0.096843 -0.860803 -1.121307 0.093921 1.685149 4.777482 10.894025 4.470757 0.000000 0.000000 0.000000 -1.071731 0.472255 -4.786457 5.233539 -0.507332 5.538107 -6.703678 -16.674869 2.233787 0.000000 0.000000 0.000000 2.287131 0.335437 -6.056816 -0.830699 0.403632 -0.967929 0.165840 -1.550250 10.292695 1.855159 -0.105939 -20.898284 0.000000 0.000000 0.000000 -27.559120 -3.997841 1.489896 -57.695519 -5.483044 -5.147873 5.750814 -26.582360 0.095703 0.000000 0.000000 0.000000 21.996644 10.591257 2.956720 57.897784 6.571327 -2.731362 -1.176946 17.556520 0.361902 0.000000 0.000000 0.000000 
-0.034356 0.943743 -0.003420 0.712414 -3.874913 4.457265 1.861929 -0.182314 -1.968467 -1.816631 0.137168 5.370903 5.593888 12.304764 3.490340 0.000000 0.000000 0.000000 -0.507797 0.399170 -4.038667 5.150180 -0.497257 5.567080 -6.790330 -16.765919 1.581102 0.000000 0.000000 0.000000 2.562341 0.267472 -4.905159 -0.966384 0.467190 -1.091595 0.323028 -1.708613 10.439621 1.857452 -0.084503 -21.568783 0.000000 0.000000 0.000000 -27.377142 -3.597349 1.306649 -56.940844 -5.524172 -5.110615 4.469864 -28.022122 0.430494 0.000000 0.000000 0.000000 22.112819 10.572455 2.885434 57.142725 6.864395 -2.552147 -0.848948 17.609512 0.401598 0.000000 0.000000 0.000000 
-0.041490 0.942351 -0.002275 0.495540 -3.889238 3.595873 2.657319 -0.369207 -4.861880 -2.567615 0.250579 12.967736 6.111896 13.149112 2.307033 0.000000 0.000000 0.000000 0.163104 0.297483 -3.068352 5.260628 -0.514291 5.571234 -6.785249 -16.574875 0.416372 0.000000 0.000000 0.000000 2.733157 0.171719 -3.360030 -0.486426 0.245297 -1.145133 0.376476 -1.232536 10.711625 1.939541 -0.079921 -21.520813 0.000000 0.000000 0.000000 -27.785627 -4.111773 1.466774 -55.975758 -5.377760 -5.117170 3.331412 -27.611914 0.649481 0.000000 0.000000 0.000000 22.546148 11.645607 3.665327 55.707064 7.653091 -2.169791 -1.180501 17.129674 0.361391 0.000000 0.000000 0.000000 
-0.048024 0.940875 -0.001017 0.168908 -4.560115 2.972515 4.045875 -0.545709 -9.364350 -4.469689 0.971032 22.435911 7.197945 15.264302 2.958559 0.000000 0.000000 0.000000 0.571073 0.283611 -2.989507 5.828500 -0.590398 7.385249 -6.915464 -16.673037 -0.633602 0.000000 0.000000 0.000000 2.900299 0.061340 -1.649572 -0.335913 0.170262 -0.779156 1.049644 -0.709754 10.236116 1.104219 0.460269 -22.338958 0.000000 0.000000 0.000000 -28.673178 -3.209319 0.807920 -55.078398 -4.461584 -5.443191 2.434588 -28.648741 0.893461 0.000000 0.000000 0.000000 22.143369 12.401741 4.116764 54.279248 8.200973 -1.837952 -0.296459 16.404886 0.453695 0.000000 0.000000 0.000000 
-0.053351 0.940225 0.002733 0.517699 -5.130465 2.551803 4.472328 -0.708479 -14.253263 -5.594265 1.776935 30.440981 7.665733 16.147330 3.992390 0.000000 0.000000 0.000000 0.263064 0.199198 -2.126736 5.773582 -0.570921 7.940143 -6.257197 -14.898109 -1.458887 0.000000 0.000000 0.000000 2.987859 0.000914 -0.721560 -0.820482 0.395919 -0.994924 1.672621 0.475370 10.737424 0.609051 0.871518 -23.098380 0.000000 0.000000 0.000000 -29.350383 -3.079590 0.414713 -54.004138 -3.645904 -5.693874 1.446236 -28.977930 1.106438 0.000000 0.000000 0.000000 21.525549 12.054363 4.187326 53.639996 8.769648 -1.691267 0.719901 17.199128 0.624073 0.000000 0.000000 0.000000 
-0.057482 0.940941 0.010104 0.861442 -5.410442 1.932178 4.059498 -0.908021 -18.227754 -5.606699 2.055496 34.736685 7.749645 16.271200 4.369933 0.000000 0.000000 0.000000 0.624247 0.036952 -0.609638 4.946088 -0.434594 7.937839 -5.768463 -13.557973 -1.897514 0.000000 0.000000 0.000000 2.472561 -0.070121 0.545857 -0.513696 0.256069 -1.922802 2.234933 1.513383 11.384617 0.411737 1.072344 -23.061663 0.000000 0.000000 0.000000 -29.961142 -2.340382 -0.408126 -54.562421 -1.959670 -6.480657 0.600981 -29.306984 1.304476 0.000000 0.000000 0.000000 20.903253 11.943024 4.392216 53.542158 9.088511 -1.688793 1.179851 17.478168 0.714406 0.000000 0.000000 0.000000 
-0.060928 0.941354 0.020728 1.354364 -5.806629 1.583011 3.044282 -1.166155 -20.744627 -5.360463 1.910314 33.235806 7.668246 16.082344 4.409582 0.000000 0.000000 0.000000 0.429176 -0.121012 1.059567 4.177287 -0.311633 7.495087 -5.390814 -12.672423 -1.525669 0.000000 0.000000 0.000000 1.985509 -0.092296 1.118825 -0.488882 0.242257 -2.008691 2.298153 2.424138 11.414457 0.156821 1.281278 -22.684714 0.000000 0.000000 0.000000 -29.772507 -1.138496 -1.493292 -55.171873 -0.352123 -7.187896 -0.797782 -28.571189 1.572314 0.000000 0.000000 0.000000 20.637402 11.862575 4.554286 53.476357 9.215945 -1.689605 1.859792 17.510830 0.819564 0.000000 0.000000 0.000000 
-0.063930 0.940753 0.033853 1.633201 -6.770253 1.219155 2.615810 -1.292206 -22.834381 -4.914508 1.606025 29.144620 6.561183 14.028012 5.024714 0.000000 0.000000 0.000000 0.382164 -0.273936 2.713486 3.569881 -0.206899 7.319586 -4.921614 -11.258513 -2.044663 0.000000 0.000000 0.000000 1.946323 -0.122205 1.697507 -0.943663 0.443248 -2.128769 2.522522 3.759182 11.704459 0.137667 1.401258 -22.786701 0.000000 0.000000 0.000000 -29.668384 -1.304013 -1.675456 -55.948503 0.922747 -7.819432 -0.716757 -28.436244 1.501556 0.000000 0.000000 0.000000 20.174215 11.340594 4.491806 54.169039 9.596279 -1.617336 2.446439 17.986345 0.943724 0.000000 0.000000 0.000000 
